<?xml version="1.0" encoding="utf-8"?>
<!-- Generator: Adobe Illustrator 20.1.0, SVG Export Plug-In . SVG Version: 6.00 Build 0)  -->
<svg version="1.1" id="Layer_1" xmlns="http://www.w3.org/2000/svg" xmlns:xlink="http://www.w3.org/1999/xlink" x="0px" y="0px"
	 viewBox="0 0 264 96.2" style="enable-background:new 0 0 264 96.2;" xml:space="preserve">
<style type="text/css">
	.st0{fill:#FFFFFF;}
	.st1{font-family:'OpenSans-Semibold';}
	.st2{font-size:37.701px;}
	.st3{font-family:'OpenSans-Light';}
	.st4{font-family:'OpenSansLight-Italic';}
	.st5{font-size:20px;}
	.st6{fill:#3CC3F2;}
</style>
<text transform="matrix(0.8814 0 0 1 120.8145 48.0489)" class="st0 st1 st2">CUSTOM</text>
<text transform="matrix(0.8814 0 0 1 252.4951 48.0489)" class="st0 st3 st2"> </text>
<text transform="matrix(0.8814 0 0 1 120.8145 73.0489)" class="st0 st4 st5">Internet of Things</text>
<g>
	<path class="st6" d="M51.9,0C25.4,0,3.8,21.6,3.8,48.1s21.6,48.1,48.1,48.1S100,74.6,100,48.1S78.4,0,51.9,0z M59.8,4.4
		c-6.6,3.8,1-0.6-33.1,19.1c-3.8-3.4-9.9-0.7-9.9,4.4c0,3.3,2.7,6,5.9,6c3.7,0,6.5-3.3,5.9-7C63.5,6.8,56.3,11,65.2,5.8
		C75.3,9,83.8,15.7,89.3,24.5c-13.3,7.6-19.1,11-32.4,18.6c-1-0.9-2.4-1.5-3.9-1.5c-3.3,0-5.9,2.7-5.9,6c0,0.4,0,0.7,0.1,1.1
		c-36.6,21-30.7,17.7-34.7,19.9c-2-3.9-3.5-8-4.3-12.4c10.2-5.8,3.4-1.9,53.9-31c3.8,3.3,9.8,0.6,9.8-4.5c0-3.3-2.7-6-5.9-6
		c-3.7,0-6.6,3.4-5.8,7.1C5,53.5,18.6,45.8,7.7,52C5.1,22.7,31.1-0.8,59.8,4.4z M19.6,27.6c0.2-2.1,2.4-3.4,4.4-2.5
		c1.3,0.6,2.1,1.9,1.8,3.4c-0.3,1.9-2.2,3.1-4.2,2.4C20.4,30.4,19.5,29.2,19.6,27.6z M50,47.6c0-0.2,0-0.3,0-0.5
		c0.2-1.5,1.5-2.7,3.1-2.7c0.4,0,0.8,0.1,1.1,0.2c1.2,0.5,2,1.6,2,2.9c0,0.1,0,0.3,0,0.4c-0.2,1.5-1.5,2.7-3.1,2.7
		c-0.4,0-0.8-0.1-1.2-0.2C50.8,50,50,48.8,50,47.6z M69.2,21.1c-0.3,1.9-2.3,3.2-4.2,2.4c-1.3-0.5-2.1-1.7-2-3.3
		c0.3-2.1,2.4-3.3,4.3-2.5C68.6,18.3,69.4,19.6,69.2,21.1z M45.2,91.9c6.8-3.9,0.9-0.5,31.7-18.3c4.2,3.6,10.7-0.1,9.7-5.6
		c-0.2-1.3-0.9-2.5-1.9-3.4c-4.3-3.9-11,0-9.8,5.6C41.6,89.4,48.5,85.4,39.6,90.5c-10.5-3-19.3-9.8-25.1-18.7
		c4.8-2.8,27.2-15.7,34.6-19.9c1,0.9,2.4,1.5,3.9,1.5c3.7,0,6.6-3.3,5.8-7.1c33.3-19.1,28.1-16.1,32.3-18.6c2,3.8,3.4,8,4.2,12.4
		c-11.5,6.6-40.8,23.4-52.7,30.3c-3.8-3.4-9.9-0.6-9.9,4.5c0,1.7,0.7,3.3,2.1,4.5c4.2,3.7,10.8,0,9.7-5.6
		c50.4-29,40.8-23.5,51.3-29.5C98.4,73,73.4,96.2,45.2,91.9z M83.9,69.6c-0.3,1.8-2.2,3.1-4.1,2.4c-1.3-0.5-2.2-1.7-2-3.3
		c0.2-2.1,2.4-3.4,4.4-2.5C83.3,66.8,84.1,68.1,83.9,69.6z M35.8,74.6c0.3-2,2.4-3.3,4.3-2.5c1.3,0.5,2.1,1.9,1.9,3.4
		c-0.3,2-2.3,3.2-4.2,2.4C36.4,77.4,35.5,76.1,35.8,74.6z"/>
</g>
<ellipse class="st6" cx="216.8" cy="34.9" rx="3.8" ry="5.7"/>
</svg>
