<?xml version="1.0" encoding="utf-8"?>
<!-- Generator: Adobe Illustrator 20.1.0, SVG Export Plug-In . SVG Version: 6.00 Build 0)  -->
<svg version="1.1" id="Layer_1" xmlns="http://www.w3.org/2000/svg" xmlns:xlink="http://www.w3.org/1999/xlink" x="0px" y="0px"
	 viewBox="0 0 264 96.2" style="enable-background:new 0 0 264 96.2;" xml:space="preserve">
<style type="text/css">
	.st0{enable-background:new    ;}
	.st1{fill:#FFFFFF;}
	.st2{fill:#3CC3F2;}
</style>
<g class="st0">
	<path class="st1" d="M134,24.5c-2.2,0-4,0.9-5.3,2.7c-1.3,1.8-1.9,4.3-1.9,7.4c0,3.3,0.6,5.8,1.8,7.5c1.2,1.7,3,2.5,5.3,2.5
		c1,0,2-0.1,2.9-0.3s1.9-0.5,2.9-0.9v3.8c-1.9,0.8-4,1.2-6.3,1.2c-3.5,0-6.1-1.2-8-3.6c-1.9-2.4-2.8-5.8-2.8-10.2
		c0-2.8,0.5-5.2,1.4-7.3c0.9-2.1,2.2-3.7,3.9-4.8c1.7-1.1,3.7-1.7,6-1.7c2.4,0,4.7,0.6,6.7,1.7l-1.4,3.7c-0.8-0.4-1.6-0.8-2.5-1.1
		C136,24.7,135,24.5,134,24.5z"/>
	<path class="st1" d="M163.6,21.1v17.4c0,2-0.4,3.7-1.1,5.2c-0.8,1.5-1.8,2.6-3.3,3.4c-1.4,0.8-3.1,1.2-5.1,1.2
		c-2.9,0-5.2-0.9-6.9-2.7c-1.6-1.8-2.5-4.2-2.5-7.3V21.1h3.9v17c0,2.2,0.5,3.9,1.4,4.9c0.9,1.1,2.3,1.6,4.2,1.6
		c3.7,0,5.5-2.2,5.5-6.5v-17H163.6z"/>
	<path class="st1" d="M183.3,40.7c0,2.4-0.8,4.3-2.3,5.6s-3.6,2-6.3,2s-4.9-0.5-6.6-1.4v-4.2c1.1,0.6,2.2,1,3.4,1.4
		c1.2,0.3,2.3,0.5,3.4,0.5c1.5,0,2.7-0.3,3.4-1c0.7-0.7,1.1-1.6,1.1-2.7c0-1-0.3-1.9-1-2.6c-0.7-0.7-2.1-1.5-4.2-2.5
		c-2.2-1-3.7-2.1-4.6-3.4s-1.3-2.8-1.3-4.6c0-2.2,0.7-4,2.1-5.3s3.3-1.9,5.7-1.9c2.3,0,4.5,0.6,6.8,1.7l-1.2,3.6
		c-2.1-1-4-1.5-5.6-1.5c-1.3,0-2.2,0.3-2.9,0.9c-0.6,0.6-1,1.4-1,2.5c0,0.7,0.1,1.3,0.4,1.8c0.3,0.5,0.7,1,1.3,1.4s1.7,1,3.2,1.7
		c1.7,0.8,3,1.6,3.8,2.3c0.8,0.7,1.4,1.5,1.8,2.4C183.2,38.5,183.3,39.5,183.3,40.7z"/>
	<path class="st1" d="M196.1,48h-3.9V24.9h-7v-3.8h17.8v3.8h-7V48z"/>
	<path class="st1" d="M227.8,34.6c0,4.4-1,7.8-2.9,10.2c-1.9,2.4-4.7,3.6-8.2,3.6c-3.6,0-6.3-1.2-8.2-3.6c-1.9-2.4-2.9-5.8-2.9-10.3
		s1-7.9,2.9-10.2s4.7-3.6,8.3-3.6c3.5,0,6.3,1.2,8.2,3.6C226.8,26.8,227.8,30.2,227.8,34.6z M209.7,34.6c0,3.3,0.6,5.8,1.8,7.5
		c1.2,1.7,2.9,2.6,5.2,2.6c2.3,0,4-0.8,5.2-2.5c1.2-1.7,1.8-4.2,1.8-7.6c0-3.3-0.6-5.8-1.7-7.5c-1.2-1.7-2.9-2.6-5.2-2.6
		c-2.3,0-4.1,0.9-5.3,2.6C210.3,28.8,209.7,31.3,209.7,34.6z"/>
	<path class="st1" d="M243.2,48l-6.9-22.5h-0.1c0.2,3.3,0.3,6.5,0.3,9.4V48h-3.5V21.1h5.5l6.6,21.4h0.1l6.8-21.4h5.5V48h-3.7V34.7
		c0-1.3,0-3.1,0.1-5.2c0.1-2.1,0.1-3.4,0.2-3.9h-0.1L246.6,48H243.2z"/>
</g>
<g class="st0">
	<path class="st1" d="M121.7,73l2.7-14.3h0.8L122.5,73H121.7z"/>
	<path class="st1" d="M131.7,73l1.3-6.8c0.1-0.6,0.2-1.1,0.2-1.5c0-0.5-0.1-0.9-0.4-1.2c-0.2-0.3-0.6-0.4-1.2-0.4
		c-0.6,0-1.2,0.2-1.8,0.7c-0.6,0.4-1,1-1.4,1.8s-0.7,1.7-0.9,2.8l-0.9,4.7h-0.8l2-10.6h0.7l-0.3,2.2h0.1c0.9-1.5,2.1-2.3,3.6-2.3
		c0.7,0,1.3,0.2,1.7,0.6c0.4,0.4,0.6,1,0.6,1.8c0,0.5-0.1,1-0.2,1.8l-1.3,6.6H131.7z"/>
	<path class="st1" d="M141,62.4l-0.2,0.8h-2.4l-1.2,6.2c-0.1,0.6-0.2,1.2-0.2,1.6c0,0.9,0.4,1.4,1.1,1.4c0.4,0,0.8-0.1,1.3-0.3V73
		c-0.6,0.2-1.1,0.3-1.5,0.3c-0.6,0-1-0.2-1.3-0.5s-0.5-0.9-0.5-1.5c0-0.5,0.1-1.1,0.2-2l1.1-5.9H136l0.1-0.7l1.6-0.2l0.8-2.5h0.5
		l-0.5,2.5H141z"/>
	<path class="st1" d="M144.3,73.2c-1,0-1.8-0.4-2.3-1.1s-0.8-1.7-0.8-3c0-1.2,0.2-2.3,0.6-3.4s1-1.9,1.7-2.6s1.5-1,2.4-1
		c0.7,0,1.2,0.2,1.6,0.6c0.4,0.4,0.6,0.9,0.6,1.6c0,1.2-0.5,2.1-1.4,2.7s-2.3,0.9-4.2,0.9h-0.3c0,0.3-0.1,0.6-0.1,1
		c0,1.1,0.2,1.9,0.6,2.5s1,0.8,1.8,0.8c0.8,0,1.5-0.2,2.4-0.7v0.9C146.1,73,145.2,73.2,144.3,73.2z M145.7,63.1
		c-0.8,0-1.5,0.4-2.1,1.1s-1.1,1.8-1.4,3h0.4c3,0,4.5-0.9,4.5-2.6c0-0.4-0.1-0.8-0.4-1.1C146.5,63.2,146.1,63.1,145.7,63.1z"/>
	<path class="st1" d="M154.4,62.2c0.4,0,0.7,0,1.1,0.1l-0.2,0.9c-0.3-0.1-0.6-0.1-1-0.1c-0.5,0-1.1,0.2-1.5,0.6
		c-0.5,0.4-0.9,1-1.3,1.9c-0.4,0.8-0.7,1.7-0.9,2.7l-0.9,4.7h-0.8l2-10.6h0.7l-0.2,2h0.1c0.4-0.6,0.8-1.1,1.1-1.3s0.6-0.5,0.9-0.6
		S154,62.2,154.4,62.2z"/>
	<path class="st1" d="M161.3,73l1.3-6.8c0.1-0.6,0.2-1.1,0.2-1.5c0-0.5-0.1-0.9-0.4-1.2c-0.2-0.3-0.6-0.4-1.2-0.4
		c-0.6,0-1.2,0.2-1.8,0.7s-1,1-1.4,1.8s-0.7,1.7-0.9,2.8l-0.9,4.7h-0.8l2-10.6h0.7l-0.3,2.2h0.1c0.9-1.5,2.1-2.3,3.6-2.3
		c0.7,0,1.3,0.2,1.7,0.6s0.6,1,0.6,1.8c0,0.5-0.1,1-0.2,1.8l-1.3,6.6H161.3z"/>
	<path class="st1" d="M168.6,73.2c-1,0-1.8-0.4-2.3-1.1s-0.8-1.7-0.8-3c0-1.2,0.2-2.3,0.6-3.4s1-1.9,1.7-2.6s1.5-1,2.4-1
		c0.7,0,1.2,0.2,1.6,0.6c0.4,0.4,0.6,0.9,0.6,1.6c0,1.2-0.5,2.1-1.4,2.7s-2.3,0.9-4.2,0.9h-0.3c0,0.3-0.1,0.6-0.1,1
		c0,1.1,0.2,1.9,0.6,2.5s1,0.8,1.8,0.8c0.8,0,1.5-0.2,2.4-0.7v0.9C170.4,73,169.5,73.2,168.6,73.2z M170,63.1
		c-0.8,0-1.5,0.4-2.1,1.1s-1.1,1.8-1.4,3h0.4c3,0,4.5-0.9,4.5-2.6c0-0.4-0.1-0.8-0.4-1.1C170.8,63.2,170.4,63.1,170,63.1z"/>
	<path class="st1" d="M178.6,62.4l-0.2,0.8H176l-1.2,6.2c-0.1,0.6-0.2,1.2-0.2,1.6c0,0.9,0.4,1.4,1.1,1.4c0.4,0,0.8-0.1,1.3-0.3V73
		c-0.6,0.2-1.1,0.3-1.5,0.3c-0.6,0-1-0.2-1.3-0.5c-0.3-0.4-0.5-0.9-0.5-1.5c0-0.5,0.1-1.1,0.2-2l1.1-5.9h-1.6l0.1-0.7l1.6-0.2
		l0.8-2.5h0.5l-0.5,2.5H178.6z"/>
	<path class="st1" d="M188,62.2c1,0,1.8,0.4,2.4,1.1s0.8,1.7,0.8,2.9c0,1.3-0.2,2.5-0.6,3.6s-1,2-1.7,2.6c-0.7,0.6-1.5,0.9-2.5,0.9
		c-1.1,0-1.9-0.4-2.4-1.1c-0.5-0.7-0.8-1.7-0.8-3.1c0-1.2,0.2-2.4,0.6-3.5s1-1.9,1.7-2.5C186.3,62.5,187.1,62.2,188,62.2z M188,63.1
		c-0.7,0-1.4,0.3-1.9,0.8c-0.6,0.5-1,1.2-1.4,2.2c-0.3,1-0.5,2-0.5,3c0,2.2,0.8,3.3,2.4,3.3c0.7,0,1.4-0.3,1.9-0.8
		c0.6-0.5,1-1.2,1.4-2.2c0.3-1,0.5-2.1,0.5-3.2c0-1-0.2-1.8-0.6-2.3S188.8,63.1,188,63.1z"/>
	<path class="st1" d="M191,77.9c-0.3,0-0.6-0.1-0.9-0.2v-0.9c0.3,0.1,0.6,0.2,0.9,0.2c0.5,0,0.9-0.2,1.2-0.5s0.5-1,0.6-1.8l2.1-11.4
		h-1.8l0.1-0.7l1.8-0.1l0.3-1.6c0.2-1.1,0.5-1.9,1-2.4s1.1-0.7,2-0.7c0.4,0,0.9,0.1,1.4,0.3l-0.2,0.8c-0.5-0.2-0.9-0.3-1.3-0.3
		c-0.6,0-1,0.2-1.3,0.5s-0.6,0.9-0.7,1.7l-0.3,1.6h2.1l-0.1,0.8h-2.1l-2.2,11.6c-0.2,1-0.5,1.8-0.9,2.3S191.7,77.9,191,77.9z"/>
	<path class="st1" d="M205.5,73h-0.9l2.5-13.4h-3.7l0.2-0.9h8.4l-0.2,0.9h-3.8L205.5,73z"/>
	<path class="st1" d="M216.7,73l1.3-6.8c0.1-0.6,0.2-1.1,0.2-1.5c0-0.5-0.1-0.9-0.4-1.2c-0.2-0.3-0.6-0.4-1.2-0.4
		c-0.6,0-1.2,0.2-1.8,0.7s-1,1-1.4,1.8s-0.7,1.7-0.9,2.8l-0.9,4.7h-0.8l2.9-15.2h0.8l-0.7,4c-0.3,1.3-0.4,2.2-0.6,2.7h0.1
		c0.4-0.7,1-1.3,1.6-1.7c0.6-0.4,1.3-0.6,2-0.6c0.7,0,1.3,0.2,1.7,0.6c0.4,0.4,0.6,1,0.6,1.8c0,0.5-0.1,1-0.2,1.8l-1.3,6.6H216.7z"
		/>
	<path class="st1" d="M221.5,73h-0.8l2-10.6h0.8L221.5,73z M223,59.7c0-0.4,0.1-0.6,0.2-0.9c0.1-0.2,0.3-0.3,0.5-0.3
		c0.3,0,0.5,0.2,0.5,0.7c0,0.4-0.1,0.7-0.2,0.9s-0.3,0.3-0.5,0.3c-0.2,0-0.3-0.1-0.4-0.2C223.1,60.1,223,59.9,223,59.7z"/>
	<path class="st1" d="M230.7,73l1.3-6.8c0.1-0.6,0.2-1.1,0.2-1.5c0-0.5-0.1-0.9-0.4-1.2c-0.2-0.3-0.6-0.4-1.2-0.4
		c-0.6,0-1.2,0.2-1.8,0.7s-1,1-1.4,1.8s-0.7,1.7-0.9,2.8l-0.9,4.7h-0.8l2-10.6h0.7l-0.3,2.2h0.1c0.9-1.5,2.1-2.3,3.6-2.3
		c0.7,0,1.3,0.2,1.7,0.6s0.6,1,0.6,1.8c0,0.5-0.1,1-0.2,1.8l-1.3,6.6H230.7z"/>
	<path class="st1" d="M243.4,62.4l-0.1,0.8l-2.1,0.1c0.1,0.2,0.3,0.5,0.4,0.8s0.2,0.7,0.2,1.1c0,0.7-0.2,1.4-0.5,2s-0.7,1.1-1.3,1.4
		c-0.5,0.3-1.1,0.5-1.8,0.5c-0.4,0-0.6,0-0.7-0.1c-0.5,0.2-0.8,0.5-1.1,0.7c-0.3,0.3-0.4,0.5-0.4,0.8s0.1,0.5,0.3,0.6s0.5,0.3,1,0.3
		l1,0.1c2,0.2,3,1.1,3,2.6c0,0.7-0.2,1.4-0.6,1.9s-0.9,1-1.6,1.3s-1.5,0.4-2.5,0.4c-1.1,0-1.9-0.2-2.5-0.7s-0.9-1.1-0.9-2
		c0-1.5,0.9-2.6,2.7-3.3c-0.4-0.3-0.7-0.7-0.7-1.2c0-0.8,0.5-1.5,1.6-2c-0.4-0.2-0.7-0.6-1-1s-0.3-1-0.3-1.5c0-0.7,0.2-1.4,0.5-2
		c0.3-0.6,0.7-1.1,1.3-1.4s1.1-0.5,1.8-0.5c0.4,0,0.8,0.1,1.3,0.2H243.4z M234.1,75.1c0,0.7,0.2,1.1,0.7,1.5s1.1,0.5,1.9,0.5
		c1.2,0,2.1-0.2,2.7-0.7s1-1.2,1-2c0-0.6-0.2-1-0.5-1.3c-0.4-0.3-1-0.5-1.9-0.6l-1.4-0.1c-0.9,0.3-1.5,0.7-1.9,1.1
		C234.3,73.9,234.1,74.4,234.1,75.1z M236.4,66.1c0,0.7,0.2,1.3,0.5,1.7c0.3,0.4,0.8,0.6,1.4,0.6c0.5,0,0.9-0.1,1.3-0.4
		s0.7-0.6,0.9-1.1c0.2-0.5,0.3-1.1,0.3-1.7c0-0.7-0.2-1.2-0.5-1.6s-0.8-0.6-1.4-0.6c-0.5,0-1,0.1-1.4,0.4c-0.4,0.3-0.7,0.7-0.9,1.1
		S236.4,65.6,236.4,66.1z"/>
	<path class="st1" d="M249,70.2c0,0.9-0.3,1.7-0.9,2.2c-0.6,0.6-1.4,0.8-2.4,0.8c-1,0-1.9-0.2-2.6-0.7v-1c0.4,0.3,0.9,0.5,1.3,0.7
		s0.9,0.2,1.3,0.2c0.8,0,1.4-0.2,1.8-0.6s0.6-0.9,0.6-1.6c0-0.3,0-0.5-0.1-0.7s-0.2-0.4-0.4-0.6c-0.2-0.2-0.6-0.5-1.1-0.8
		c-0.8-0.5-1.4-1-1.7-1.4c-0.3-0.4-0.4-0.9-0.4-1.6c0-0.8,0.3-1.5,0.8-2c0.6-0.5,1.3-0.8,2.2-0.8c0.4,0,0.9,0.1,1.4,0.2
		c0.5,0.1,0.9,0.3,1.2,0.5l-0.3,0.9c-0.8-0.4-1.5-0.6-2.3-0.6c-0.7,0-1.2,0.2-1.6,0.5s-0.6,0.8-0.6,1.3c0,0.4,0,0.6,0.1,0.9
		s0.3,0.4,0.5,0.7c0.2,0.2,0.6,0.5,1,0.7c0.7,0.4,1.1,0.7,1.4,1s0.5,0.5,0.6,0.8S249,69.8,249,70.2z"/>
</g>
<g>
	<path class="st2" d="M51.9,0C25.4,0,3.8,21.6,3.8,48.1s21.6,48.1,48.1,48.1S100,74.6,100,48.1S78.4,0,51.9,0z M59.8,4.4
		c-6.6,3.8,1-0.6-33.1,19.1c-3.8-3.4-9.9-0.7-9.9,4.4c0,3.3,2.7,6,5.9,6c3.7,0,6.5-3.3,5.9-7C63.5,6.8,56.3,11,65.2,5.8
		C75.3,9,83.8,15.7,89.3,24.5c-13.3,7.6-19.1,11-32.4,18.6c-1-0.9-2.4-1.5-3.9-1.5c-3.3,0-5.9,2.7-5.9,6c0,0.4,0,0.7,0.1,1.1
		c-36.6,21-30.7,17.7-34.7,19.9c-2-3.9-3.5-8-4.3-12.4c10.2-5.8,3.4-1.9,53.9-31c3.8,3.3,9.8,0.6,9.8-4.5c0-3.3-2.7-6-5.9-6
		c-3.7,0-6.6,3.4-5.8,7.1C5,53.5,18.6,45.8,7.7,52C5.1,22.7,31.1-0.8,59.8,4.4z M19.6,27.6c0.2-2.1,2.4-3.4,4.4-2.5
		c1.3,0.6,2.1,1.9,1.8,3.4c-0.3,1.9-2.2,3.1-4.2,2.4C20.4,30.4,19.5,29.2,19.6,27.6z M50,47.6c0-0.2,0-0.3,0-0.5
		c0.2-1.5,1.5-2.7,3.1-2.7c0.4,0,0.8,0.1,1.1,0.2c1.2,0.5,2,1.6,2,2.9c0,0.1,0,0.3,0,0.4c-0.2,1.5-1.5,2.7-3.1,2.7
		c-0.4,0-0.8-0.1-1.2-0.2C50.8,50,50,48.8,50,47.6z M69.2,21.1c-0.3,1.9-2.3,3.2-4.2,2.4c-1.3-0.5-2.1-1.7-2-3.3
		c0.3-2.1,2.4-3.3,4.3-2.5C68.6,18.3,69.4,19.6,69.2,21.1z M45.2,91.9c6.8-3.9,0.9-0.5,31.7-18.3c4.2,3.6,10.7-0.1,9.7-5.6
		c-0.2-1.3-0.9-2.5-1.9-3.4c-4.3-3.9-11,0-9.8,5.6C41.6,89.4,48.5,85.4,39.6,90.5c-10.5-3-19.3-9.8-25.1-18.7
		c4.8-2.8,27.2-15.7,34.6-19.9c1,0.9,2.4,1.5,3.9,1.5c3.7,0,6.6-3.3,5.8-7.1c33.3-19.1,28.1-16.1,32.3-18.6c2,3.8,3.4,8,4.2,12.4
		c-11.5,6.6-40.8,23.4-52.7,30.3c-3.8-3.4-9.9-0.6-9.9,4.5c0,1.7,0.7,3.3,2.1,4.5c4.2,3.7,10.8,0,9.7-5.6
		c50.4-29,40.8-23.5,51.3-29.5C98.4,73,73.4,96.2,45.2,91.9z M83.9,69.6c-0.3,1.8-2.2,3.1-4.1,2.4c-1.3-0.5-2.2-1.7-2-3.3
		c0.2-2.1,2.4-3.4,4.4-2.5C83.3,66.8,84.1,68.1,83.9,69.6z M35.8,74.6c0.3-2,2.4-3.3,4.3-2.5c1.3,0.5,2.1,1.9,1.9,3.4
		c-0.3,2-2.3,3.2-4.2,2.4C36.4,77.4,35.5,76.1,35.8,74.6z"/>
</g>
<ellipse class="st2" cx="216.8" cy="34.9" rx="3.8" ry="5.7"/>
</svg>
